Coordinates
version=1
nRows=6
nColumns=63
inDegrees=yes

Units are S.I. units (second, meters, Newtons, ...)
If the header above contains a line with 'inDegrees', this indicates whether rotational values are in degrees (yes) or radians (no).

endheader
time	pelvis_tilt	pelvis_list	pelvis_rotation	pelvis_tx	pelvis_ty	pelvis_tz	hip_flexion_r	hip_adduction_r	hip_rotation_r	knee_angle_r	knee_angle_r_beta	ankle_angle_r	subtalar_angle_r	mtp_angle_r	hip_flexion_l	hip_adduction_l	hip_rotation_l	knee_angle_l	knee_angle_l_beta	ankle_angle_l	subtalar_angle_l	mtp_angle_l	L5_S1_Flex_Ext	L5_S1_Lat_Bending	L5_S1_axial_rotation	L4_L5_Flex_Ext	L4_L5_Lat_Bending	L4_L5_axial_rotation	L3_L4_Flex_Ext	L3_L4_Lat_Bending	L3_L4_axial_rotation	L2_L3_Flex_Ext	L2_L3_Lat_Bending	L2_L3_axial_rotation	L1_L2_Flex_Ext	L1_L2_Lat_Bending	L1_L2_axial_rotation	L1_T12_Flex_Ext	L1_T12_Lat_Bending	L1_T12_axial_rotation	Abs_r3	Abs_r2	Abs_r1	Abs_t1	Abs_t2	neck_flexion	neck_bending	neck_rotation	arm_flex_r	arm_add_r	arm_rot_r	elbow_flex_r	pro_sup_r	wrist_flex_r	wrist_dev_r	arm_flex_l	arm_add_l	arm_rot_l	elbow_flex_l	pro_sup_l	wrist_flex_l	wrist_dev_l
      2.69491525	      6.39422209	      0.81745160	     89.54629534	      0.45231143	      0.61267355	      0.68161160	     -4.56117403	      2.87418672	      8.22609429	      1.23240130	      0.02150946	     20.66687318	    -10.54391277	      0.00000000	     -2.89085554	     -3.61770424	      9.05727171	      0.68362148	      0.01193145	     24.14360017	     -7.84011249	      0.00000000	     -0.04800991	      0.33531553	     -1.24221843	     -0.08915920	      0.44596966	     -1.31985709	     -0.07887548	      0.81528618	     -1.31985709	     -0.05487052	      0.81528618	     -1.08694113	     -0.04458200	      0.68377543	     -1.00930248	     -0.02743286	      0.51940376	     -0.93166383	     -0.34292998	      3.79315636	     -6.90884627	      0.00000000	      0.00000000	     24.49606386	     -2.79700304	     -2.59429794	      5.17341307	    -27.08369946	      1.11800513	     96.80645682	     54.76702969	     -8.02444270	     12.29780902	    -13.57988345	    -24.24581447	      0.25601597	     81.60030827	     89.02098920	    -17.01711788	      7.29652903
      2.71186441	      6.40445533	      0.80890039	     89.87281872	      0.45192133	      0.61223375	      0.68176678	     -4.58185738	      2.88482382	      8.40761470	      1.15113495	      0.02009109	     20.60446396	    -11.08458798	      0.00000000	     -2.79338950	     -3.62033087	      9.71658930	      0.67851179	      0.01184226	     23.95230427	     -8.48160337	      0.00000000	     -0.05505911	      0.32815949	     -1.21247455	     -0.10225028	      0.43645212	     -1.28825421	     -0.09045661	      0.79788698	     -1.28825421	     -0.06292706	      0.79788698	     -1.06091524	     -0.05112789	      0.66918282	     -0.98513558	     -0.03146078	      0.50831904	     -0.90935592	     -0.39328173	      3.71220574	     -6.74341973	      0.00000000	      0.00000000	     24.64044511	     -2.72416941	     -3.16940602	      4.30465765	    -26.84100937	      1.20687528	     93.99914525	     59.19350846	     -8.60711248	     11.58832807	    -12.73244397	    -24.62047595	      2.40320452	     76.85776453	     89.09905649	    -19.71096059	      5.65128071
      2.72881356	      6.38206901	      0.77054126	     90.20668854	      0.45156766	      0.61178817	      0.68180374	     -4.56768965	      2.87518591	      8.29012373	      1.10995163	      0.01937231	     20.62511236	    -11.32853155	      0.00000000	     -2.66512602	     -3.59448927	     10.20179031	      0.69684229	      0.01216219	     23.91541361	     -8.84188360	      0.00000000	     -0.05814255	      0.31964626	     -1.22998051	     -0.10797654	      0.42512953	     -1.30685429	     -0.09552240	      0.77718793	     -1.30685429	     -0.06645112	      0.77718793	     -1.07623294	     -0.05399118	      0.65182266	     -0.99935916	     -0.03322265	      0.49513206	     -0.92248538	     -0.41530644	      3.61590247	     -6.84078259	      0.00000000	      0.00000000	     24.92897104	     -2.42663069	     -3.06002151	      3.87415608	    -26.34273663	      1.51504434	     91.02374774	     64.40288381	     -9.17893764	     11.23004678	    -12.18613645	    -24.82638263	      4.05223112	     72.78964855	     89.16376377	    -21.90636217	      4.77471479
      2.74576271	      6.30236839	      0.77544166	     90.59446951	      0.45118853	      0.61139048	      0.68204184	     -4.59100272	      2.82467673	      7.94045449	      1.09161870	      0.01905234	     20.66590306	    -11.30798482	      0.00000000	     -2.56772210	     -3.51084191	     10.61281385	      0.70563492	      0.01231565	     23.97981346	     -8.96032865	      0.00000000	     -0.06866735	      0.30483109	     -1.29183782	     -0.12752213	      0.40542535	     -1.37257768	     -0.11281359	      0.74116632	     -1.37257768	     -0.07847991	      0.74116632	     -1.13035809	     -0.06376450	      0.62161156	     -1.04961823	     -0.03923652	      0.47218336	     -0.96887836	     -0.49048400	      3.44831027	     -7.18481439	      0.00000000	      0.00000000	     25.22403736	     -1.92449485	     -2.46795827	      4.01096006	    -25.63948025	      2.04460631	     88.00746311	     69.83989696	     -9.71191647	     11.79367083	    -12.02420070	    -24.92530311	      5.13746378	     69.44700390	     89.19137966	    -23.37185283	      4.68194188
      2.76271186	      6.21249931	      0.68210275	     91.01320385	      0.45074048	      0.61088339	      0.68275050	     -4.46767437	      2.77305164	      7.29895929	      1.12731921	      0.01967543	     20.73845627	    -11.00168246	      0.00000000	     -2.32394019	     -3.41329306	     10.93204829	      0.73992605	      0.01291415	     24.13326827	     -8.87924346	      0.00000000	     -0.06580107	      0.28360200	     -1.35173352	     -0.12219917	      0.37719066	     -1.43621686	     -0.10810458	      0.68954991	     -1.43621686	     -0.07520404	      0.68954991	     -1.18276683	     -0.06110287	      0.57832120	     -1.09828348	     -0.03759873	      0.43929950	     -1.01380014	     -0.47001047	      3.20816257	     -7.51793630	      0.00000000	      0.00000000	     25.34148311	     -1.46959670	     -2.22904202	      4.49512700	    -24.89173933	      2.60934334	     85.24758625	     75.54424146	    -10.04078733	     13.41522840	    -12.09405262	    -24.86755316	      5.63267726	     66.64575021	     89.17569093	    -23.35248875	      5.20631208
      2.77966102	      6.10870482	      0.58209210	     91.41152893	      0.45017370	      0.61043382	      0.68410491	     -4.26810536	      2.70173174	      6.46216200	      1.23715699	      0.02159246	     20.80579344	    -10.46619298	      0.00000000	     -2.02430153	     -3.28883208	     11.13105020	      0.80881100	      0.01411642	     24.32740858	     -8.62089761	      0.00000000	     -0.06838800	      0.25814513	     -1.36752665	     -0.12700336	      0.34333302	     -1.45299706	     -0.11235465	      0.62765406	     -1.45299706	     -0.07816065	      0.62765406	     -1.19658582	     -0.06350510	      0.52640954	     -1.11111540	     -0.03907691	      0.39986680	     -1.02564499	     -0.48848867	      2.92018930	     -7.60577295	      0.00000000	      0.00000000	     25.33316979	     -1.13444293	     -2.32958683	      5.11065413	    -24.26845122	      3.19313016	     82.85060862	     80.14297326	    -10.05230604	     15.16383115	    -11.96657193	    -24.63013768	      5.89873992	     64.02307902	     89.09892629	    -21.72975378	      6.25118449
